# xmcd
#
# Track frame offsets: 
#        150
#        15828
#        33273
#        47375
#        62803
#        80500
#        94656
#        110884
#        126475
#        140507
#        157006
#        174770
#        192771
#        208791
#
# Disc length: 2990 seconds
#
# Revision: 3
# Processed by: cddbd v1.5.2PL0 Copyright (c) Steve Scherf et al.
# Submitted via: ExactAudioCopyFreeDBPlugin 1.0
#
DISCID=b70bac0e
DTITLE=EXO - XOXO [Repackage]
DYEAR=2013
DGENRE=KPop
TTITLE0=으르렁 (Growl)
TTITLE1=늑대와 미녀 (Wolf)
TTITLE2=XOXO
TTITLE3=Lucky
TTITLE4=Baby Don't Cry
TTITLE5=Black Pearl
TTITLE6=나비소녀 (Don't Go)
TTITLE7=Let Out The Beast
TTITLE8=3.6.5
TTITLE9=Heart Attack
TTITLE10=피터팬 (Peter Pan)
TTITLE11=Baby
TTITLE12=My Lady
TTITLE13=으르렁 (Growl) (EXO-L Ver.)
EXTD=Powerd by gracenote music web API
EXTT0=
EXTT1=
EXTT2=
EXTT3=
EXTT4=
EXTT5=
EXTT6=
EXTT7=
EXTT8=
EXTT9=
EXTT10=
EXTT11=
EXTT12=
EXTT13=
PLAYORDER=
